REM MD5 4ea30edb551ac236182f6662c0418ef7
FILE "Striker 96 (USA).bin" BINARY
  TRACK 01 MODE2/2352
    INDEX 01 00:00:00
  TRACK 02 AUDIO
    INDEX 00 06:15:48
    INDEX 01 06:17:48
  TRACK 03 AUDIO
    INDEX 00 20:21:48
    INDEX 01 20:23:48
REM LEADOUT 23:23:73
